<?xml version="1.0" encoding="iso-8859-1"?>
<!-- Generator: Adobe Illustrator 16.0.0, SVG Export Plug-In . SVG Version: 6.00 Build 0)  -->
<!DOCTYPE svg PUBLIC "-//W3C//DTD SVG 1.1//EN" "http://www.w3.org/Graphics/SVG/1.1/DTD/svg11.dtd">
<svg xmlns="http://www.w3.org/2000/svg" xmlns:xlink="http://www.w3.org/1999/xlink" version="1.1" id="Capa_1" x="0px" y="0px" width="512px" height="512px" viewBox="0 0 612.008 612.008" style="enable-background:new 0 0 612.008 612.008;" xml:space="preserve">
<g>
	<g id="Shape_379_1_">
		<g>
			<path d="M609.208,298.575L313.306,3.815c-3.987-3.988-10.445-3.988-14.433,0L2.961,298.575c-3.988,3.988-3.907,10.353,0,14.393     c1.999,2.06,4.61,3.11,7.201,3.131v0.041h71.441v284.865c0,2.815,1.142,5.335,2.988,7.171c1.846,1.856,4.396,3.009,7.211,3.009     h142.8c5.63,0,10.2-4.569,10.2-10.18V397.556h122.401v203.449c0,5.6,4.569,10.18,10.2,10.18h142.8c5.63,0,10.2-4.569,10.2-10.18     V316.14h71.899c2.673,0.051,5.191-1,6.905-3.162C612.676,308.541,613.197,302.563,609.208,298.575z" fill="#FFFFFF"/>
		</g>
	</g>
</g>
<g>
</g>
<g>
</g>
<g>
</g>
<g>
</g>
<g>
</g>
<g>
</g>
<g>
</g>
<g>
</g>
<g>
</g>
<g>
</g>
<g>
</g>
<g>
</g>
<g>
</g>
<g>
</g>
<g>
</g>
</svg>
